<svg width="22" height="19" viewBox="0 0 22 19" fill="none" xmlns="http://www.w3.org/2000/svg">
<path d="M4.25656 16.153C4.17959 16.0877 4.07277 16.0502 3.96388 16.0502C3.85499 16.0502 3.74817 16.0877 3.67116 16.153C3.59415 16.2183 3.54985 16.3089 3.54985 16.4012C3.54985 16.4935 3.59411 16.5841 3.67116 16.6493C3.74817 16.7146 3.85499 16.7522 3.96388 16.7522C4.07277 16.7522 4.17959 16.7147 4.25656 16.6493C4.33357 16.5841 4.37792 16.4935 4.37792 16.4012C4.37792 16.3089 4.33361 16.2183 4.25656 16.153Z" fill="#21406C"/>
<path d="M20.1742 6.60553C20.0972 6.54021 19.9908 6.50269 19.8815 6.50269C19.7726 6.50269 19.6658 6.54021 19.5888 6.60553C19.5118 6.67082 19.4675 6.76139 19.4675 6.85371C19.4675 6.94602 19.5118 7.03659 19.5888 7.10184C19.6658 7.16713 19.7726 7.20472 19.8815 7.20472C19.9908 7.20472 20.0972 7.16717 20.1742 7.10184C20.2516 7.03659 20.2959 6.94602 20.2959 6.85371C20.2959 6.76139 20.2516 6.67082 20.1742 6.60553Z" fill="#21406C"/>
<path d="M21.8113 0.286835C21.7336 0.221018 21.6283 0.184021 21.5184 0.184021L11.3335 0.184477C11.1048 0.184477 10.9195 0.341664 10.9195 0.535497V1.53931L6.99489 2.43086C6.774 2.48106 6.64292 2.67352 6.70212 2.86076L8.73615 9.29642L6.97654 10.7882C6.75259 10.511 6.37657 10.3287 5.95123 10.3287H1.97663C1.29174 10.3287 0.734571 10.8011 0.734571 11.3817V17.1032C0.734571 17.6838 1.29174 18.1562 1.97663 18.1562H5.95127C6.53311 18.1562 7.02258 17.8152 7.15673 17.3566L7.64902 17.7206C8.02906 18.0015 8.51596 18.1563 9.02021 18.1563H21.5185C21.7472 18.1563 21.9326 17.9991 21.9326 17.8052V0.535041C21.9325 0.44195 21.8889 0.352651 21.8113 0.286835ZM6.36522 17.1032C6.36522 17.2967 6.17949 17.4542 5.95119 17.4542H1.97659C1.74829 17.4542 1.56256 17.2968 1.56256 17.1032V11.3817C1.56256 11.1882 1.74829 11.0307 1.97659 11.0307H3.54988V15.0743C3.54988 15.2681 3.73528 15.4253 3.96391 15.4253C4.19254 15.4253 4.37794 15.2681 4.37794 15.0743V11.0307H5.95123C6.17953 11.0307 6.36526 11.1882 6.36526 11.3817V17.1032H6.36522ZM7.6091 3.01812L10.9195 2.26609V3.5668L10.642 3.62984C10.5359 3.65395 10.4455 3.71275 10.3906 3.79338C10.3357 3.87401 10.3208 3.9698 10.3492 4.05973C10.5083 4.56313 10.1547 5.08239 9.56094 5.21729C9.45474 5.24144 9.36419 5.30034 9.30933 5.38115C9.25447 5.46192 9.23969 5.55788 9.26839 5.64789L10.8822 10.7144H10.0513L9.62305 9.29407C9.60943 9.24886 9.58558 9.20719 9.55366 9.17096L7.6091 3.01812ZM10.9195 5.17654V8.13848L10.1643 5.76786C10.4798 5.62977 10.7379 5.42316 10.9195 5.17654ZM16.8676 17.4542H9.02013C8.71602 17.4542 8.42235 17.3609 8.19314 17.1914L7.19329 16.4522V11.5973L9.00088 10.0648L9.32871 11.1523C9.37558 11.3077 9.54065 11.4164 9.72983 11.4164L17.8699 11.4168C18.1895 11.4168 18.4495 11.6372 18.4495 11.9082C18.4495 12.1792 18.1895 12.3996 17.8699 12.3996H13.6989C13.4703 12.3996 13.2849 12.5568 13.2849 12.7507C13.2849 12.9445 13.4703 13.1017 13.6989 13.1017H19.1658C19.4855 13.1017 19.7455 13.3221 19.7455 13.5931C19.7455 13.8641 19.4855 14.0845 19.1658 14.0845H13.6989C13.4703 14.0845 13.2849 14.2417 13.2849 14.4356C13.2849 14.6294 13.4703 14.7866 13.6989 14.7866H18.2799C18.5995 14.7866 18.8596 15.007 18.8596 15.278C18.8596 15.549 18.5995 15.7694 18.2799 15.7694H13.6989C13.4703 15.7694 13.2849 15.9266 13.2849 16.1205C13.2849 16.3143 13.4703 16.4715 13.6989 16.4715H16.8676C17.1873 16.4715 17.4473 16.6919 17.4473 16.9629C17.4472 17.2337 17.1872 17.4542 16.8676 17.4542ZM21.1045 17.4542H21.1045H18.1499C18.2302 17.3042 18.2753 17.1379 18.2753 16.9628C18.2753 16.7876 18.2302 16.6213 18.1499 16.4713H18.2799C19.0561 16.4713 19.6876 15.936 19.6876 15.2779C19.6876 15.086 19.6336 14.9046 19.5382 14.7438C20.1342 14.605 20.5735 14.1418 20.5735 13.593C20.5735 13.3268 20.47 13.0807 20.2956 12.882V8.43323C20.2956 8.23939 20.1102 8.08221 19.8816 8.08221C19.6529 8.08221 19.4675 8.23939 19.4675 8.43323V12.4275C19.3702 12.4095 19.2693 12.3996 19.1657 12.3996H19.1522C19.2324 12.2497 19.2775 12.0834 19.2775 11.9082C19.2775 11.2501 18.646 10.7148 17.8699 10.7148H17.2043C17.911 10.4578 18.4074 9.8623 18.4074 9.17012C18.4074 8.24382 17.5185 7.49021 16.4259 7.49021C15.3334 7.49021 14.4445 8.24382 14.4445 9.17012C14.4445 9.8623 14.9409 10.4578 15.6475 10.7148H13.3843V4.04043C14.1239 3.90378 14.7075 3.40901 14.8687 2.78192H17.9831C18.1442 3.40901 18.7279 3.90378 19.4675 4.04043V5.13175C19.4675 5.32558 19.6529 5.48277 19.8815 5.48277C20.1101 5.48277 20.2956 5.32558 20.2956 5.13175V3.72704C20.2956 3.5332 20.1101 3.37602 19.8815 3.37602C19.2668 3.37602 18.7668 2.95202 18.7668 2.4309C18.7668 2.23706 18.5814 2.07988 18.3527 2.07988H14.4991C14.2705 2.07988 14.085 2.23706 14.085 2.4309C14.085 2.95206 13.585 3.37602 12.9703 3.37602C12.7417 3.37602 12.5563 3.5332 12.5563 3.72704V10.7147H11.7476V0.886446L21.1045 0.88606V17.4542ZM16.426 10.148C15.79 10.148 15.2726 9.70932 15.2726 9.17016C15.2726 8.63099 15.79 8.19229 16.426 8.19229C17.062 8.19229 17.5794 8.63096 17.5794 9.17012C17.5794 9.70929 17.062 10.148 16.426 10.148Z" fill="#21406C"/>
</svg>
