<svg width="22" height="21" viewBox="0 0 22 21" fill="none" xmlns="http://www.w3.org/2000/svg">
<path d="M11.6361 13.0397C12.0272 13.0139 12.3838 12.8448 12.6153 12.5749L16.1335 8.45146C16.2413 8.32499 16.2251 8.15041 16.0944 8.03955C15.9636 7.92901 15.7577 7.91531 15.6085 8.00642L10.7441 10.9901C10.4269 11.1857 10.2274 11.488 10.197 11.8196C10.1665 12.1513 10.3082 12.4759 10.5851 12.7107C10.8372 12.9247 11.1773 13.0432 11.5309 13.0432C11.5658 13.0432 11.6008 13.042 11.6361 13.0397ZM10.9462 11.8693C10.9594 11.7237 11.0473 11.5909 11.1856 11.5055L14.1529 9.68557L12.007 12.2006C11.9055 12.3188 11.7488 12.393 11.5771 12.4045C11.4061 12.4141 11.2382 12.3637 11.1161 12.2602C10.9951 12.1573 10.9327 12.0146 10.9462 11.8693Z" fill="#21406C"/>
<path d="M20.0529 7.17018C20.0492 7.16349 20.0492 7.15648 20.045 7.14979C20.0405 7.14342 20.0334 7.13992 20.0285 7.13387C19.6486 6.58148 19.1992 6.06763 18.6889 5.60189L19.496 4.91794L20.0274 5.36839L21.6213 4.01672L20.0274 2.66538L18.433 4.01672L18.9647 4.46749L18.1576 5.15145C17.6083 4.71884 17.0026 4.33752 16.3506 4.01545C16.3435 4.01131 16.3394 4.00525 16.3318 4.00143C16.324 3.99761 16.3157 3.99793 16.3078 3.99442C15.1456 3.42674 13.8399 3.04861 12.4477 2.91003V2.53062H13.0113C13.5295 2.53062 13.9507 2.17351 13.9507 1.73421C13.9507 1.29491 13.5291 0.937805 13.011 0.937805H9.6292C9.11103 0.937805 8.68982 1.29491 8.68982 1.73421C8.68982 2.17351 9.11103 2.53062 9.6292 2.53062H10.1928V2.89888C9.78701 2.93552 9.38195 2.99158 8.9814 3.06931C8.77925 3.1085 8.65262 3.27957 8.69921 3.45095C8.74543 3.62234 8.94721 3.73001 9.14936 3.69019C9.49505 3.62298 9.84413 3.57233 10.1939 3.53824L10.5971 3.5118C10.7204 3.50383 10.8339 3.4981 10.9443 3.49364V4.12344C10.9443 4.29961 11.1123 4.442 11.3201 4.442C11.5279 4.442 11.6958 4.29961 11.6958 4.12344V3.49587C13.109 3.55098 14.4407 3.87273 15.6247 4.40218L15.2542 4.94597C15.1505 5.09856 15.2121 5.29321 15.3917 5.38113C15.4507 5.41012 15.5153 5.42382 15.5792 5.42382C15.7092 5.42382 15.8355 5.36679 15.905 5.26454L16.2744 4.72202C17.4501 5.35437 18.4488 6.20111 19.1947 7.1979L18.5548 7.51105C18.3756 7.59897 18.3139 7.79361 18.418 7.9462C18.4879 8.04846 18.6138 8.10549 18.7438 8.10549C18.8077 8.10549 18.8723 8.09179 18.9313 8.0628L19.5727 7.74869C20.2058 8.76682 20.5865 9.91429 20.6432 11.1315H19.9011C19.6933 11.1315 19.5254 11.2739 19.5254 11.4501C19.5254 11.6262 19.6933 11.7686 19.9011 11.7686H20.6432C20.5865 12.9859 20.2058 14.1333 19.5727 15.1515L18.9313 14.8374C18.7517 14.7494 18.5217 14.8011 18.418 14.954C18.3143 15.1066 18.3759 15.3012 18.5555 15.3891L19.1954 15.7023C18.4496 16.6991 17.4508 17.5458 16.2751 18.1781L15.9057 17.6356C15.8017 17.4827 15.5713 17.4308 15.3925 17.519C15.2125 17.607 15.1509 17.8019 15.2549 17.9542L15.6254 18.498C14.4414 19.0274 13.1098 19.3492 11.6966 19.4043V18.7774C11.6966 18.6012 11.5286 18.4588 11.3208 18.4588C11.113 18.4588 10.9451 18.6012 10.9451 18.7774V19.4068C10.345 19.3893 9.74305 19.3256 9.15049 19.2103C8.94833 19.1692 8.74656 19.2781 8.70034 19.4495C8.65375 19.6209 8.78037 19.792 8.98253 19.8312C9.73253 19.9777 10.4987 20.0516 11.2588 20.0516C11.2772 20.0516 11.2949 20.0507 11.3133 20.0503C11.3159 20.0503 11.3178 20.0516 11.3201 20.0516C11.3231 20.0516 11.3257 20.05 11.3287 20.05C13.135 20.0395 14.8296 19.626 16.2958 18.9118C16.3074 18.9073 16.3198 18.9051 16.3311 18.8994C16.3386 18.8956 16.3427 18.8895 16.3499 18.8854C17.8675 18.1355 19.1357 17.0616 20.0221 15.7759C20.0292 15.7673 20.0383 15.7606 20.0446 15.751C20.0492 15.7443 20.0488 15.7373 20.0525 15.7306C20.9108 14.4691 21.4041 13.0082 21.4041 11.4504C21.4041 9.89263 20.9108 8.43169 20.0529 7.17018ZM20.027 3.56627L20.5583 4.01672L20.027 4.46749L19.4953 4.01672L20.027 3.56627ZM10.9443 2.85588V1.8935H9.6292C9.52586 1.8935 9.44132 1.82182 9.44132 1.73421C9.44132 1.64661 9.52586 1.57493 9.6292 1.57493H13.011C13.1143 1.57493 13.1988 1.64661 13.1988 1.73421C13.1988 1.82182 13.1143 1.8935 13.011 1.8935H11.6958V2.85588C11.5651 2.85142 11.4403 2.84919 11.3201 2.84919C11.3096 2.84919 11.2975 2.84982 11.287 2.84982C11.2776 2.84982 11.2682 2.84919 11.2588 2.84919C11.1972 2.84919 11.1356 2.85269 11.074 2.85365C11.0304 2.8546 10.9894 2.85428 10.9443 2.85588Z" fill="#21406C"/>
<path d="M7.93839 5.3978H6.05963C5.85184 5.3978 5.68388 5.54019 5.68388 5.71636C5.68388 5.89253 5.85184 6.03492 6.05963 6.03492H7.93839C8.14618 6.03492 8.31414 5.89253 8.31414 5.71636C8.31414 5.54019 8.14618 5.3978 7.93839 5.3978Z" fill="#21406C"/>
<path d="M7.93832 7.62766H4.1808C3.97301 7.62766 3.80505 7.77005 3.80505 7.94622C3.80505 8.12238 3.97301 8.26478 4.1808 8.26478H7.93832C8.14611 8.26478 8.31407 8.12238 8.31407 7.94622C8.31407 7.77005 8.14611 7.62766 7.93832 7.62766Z" fill="#21406C"/>
<path d="M7.9383 9.85754H2.30204C2.09425 9.85754 1.92628 9.99994 1.92628 10.1761C1.92628 10.3523 2.09425 10.4947 2.30204 10.4947H7.9383C8.14609 10.4947 8.31406 10.3523 8.31406 10.1761C8.31406 9.99994 8.14609 9.85754 7.9383 9.85754Z" fill="#21406C"/>
<path d="M7.93833 12.0876H0.799061C0.59127 12.0876 0.423309 12.23 0.423309 12.4062C0.423309 12.5823 0.59127 12.7247 0.799061 12.7247H7.93833C8.14612 12.7247 8.31409 12.5823 8.31409 12.4062C8.31409 12.23 8.14612 12.0876 7.93833 12.0876Z" fill="#21406C"/>
<path d="M7.93825 14.3175C7.73046 14.3175 3.05349 14.3175 3.05349 14.3175C2.8457 14.3175 2.67773 14.4599 2.67773 14.6361C2.67773 14.8122 2.8457 14.9546 3.05349 14.9546H7.93825C8.14604 14.9546 8.314 14.8122 8.314 14.6361C8.314 14.4599 7.93825 14.3175 7.93825 14.3175Z" fill="#21406C"/>
<path d="M7.93832 16.5474H5.30806C5.10027 16.5474 4.93231 16.6898 4.93231 16.866C4.93231 17.0422 5.10027 17.1846 5.30806 17.1846H7.93832C8.14611 17.1846 8.31407 17.0422 8.31407 16.866C8.31407 16.6898 8.14611 16.5474 7.93832 16.5474Z" fill="#21406C"/>
</svg>
